<svg version="1.1" id="Layer_1" xmlns="http://www.w3.org/2000/svg" xmlns:xlink="http://www.w3.org/1999/xlink" x="0px" y="0px"
	 width="100%" viewBox="0 0 700 600" enable-background="new 0 0 700 600" xml:space="preserve">
<path fill="#FEFEFE" opacity="1.000000" stroke="none" 
	d="
M411.000000,601.000000 
	C274.000031,601.000000 137.500046,601.000000 1.000055,601.000000 
	C1.000037,401.000061 1.000037,201.000122 1.000018,1.000135 
	C234.333237,1.000090 467.666473,1.000090 700.999756,1.000045 
	C700.999878,200.999863 700.999878,400.999725 700.999939,600.999756 
	C604.500000,601.000000 508.000000,601.000000 411.000000,601.000000 
M504.694122,141.995193 
	C506.226501,142.849701 507.677826,144.172791 509.309235,144.455078 
	C512.156616,144.947769 515.114807,144.799835 518.336731,145.515808 
	C521.666199,149.122192 525.171265,152.585297 528.268005,156.381546 
	C530.630981,159.278320 532.959778,160.048309 536.328308,158.531052 
	C540.064392,160.734924 540.627258,157.553314 542.057922,155.368103 
	C543.647827,152.939697 545.402527,149.208115 547.570435,148.830856 
	C554.376160,147.646591 561.729370,147.138260 563.665466,156.686264 
	C563.697083,156.842255 563.777344,157.055527 563.898071,157.116028 
	C565.208252,157.772659 566.531067,158.404068 567.850464,159.042358 
	C568.163269,157.620819 569.164429,155.885010 568.681335,154.826889 
	C564.338745,145.315125 559.839172,135.870392 555.151428,126.523438 
	C553.551697,123.333687 551.209167,123.599991 549.710571,126.720612 
	C545.048645,136.428680 540.551575,146.215958 535.304993,155.942520 
	C531.950623,152.207870 528.596313,148.473221 525.153687,144.640320 
	C531.626160,141.249771 532.723267,139.250122 532.125183,132.504288 
	C531.738037,128.136276 529.344299,125.627693 524.260498,124.646118 
	C517.098267,124.602310 509.932373,124.680176 502.775421,124.463036 
	C499.227173,124.355392 498.072754,125.802261 498.187988,129.196793 
	C498.368805,134.522888 498.121277,139.862930 498.274689,145.190735 
	C498.401917,149.608002 498.845947,154.016159 499.337341,158.690369 
	C499.337341,158.690369 499.642517,158.794159 500.055542,159.080627 
	C501.082642,158.738785 502.109772,158.396942 503.605621,157.681839 
	C503.590485,157.106552 503.575317,156.531281 503.730316,155.026718 
	C503.775146,150.560333 503.819946,146.093933 504.694122,141.995193 
M471.518921,167.205826 
	C467.561035,167.205826 463.603119,167.205826 459.421814,167.205826 
	C459.421814,171.275894 459.421814,174.843765 459.421814,179.070129 
	C476.110687,179.070129 492.583954,179.070129 510.349579,179.070129 
	C492.855774,196.485779 476.349762,212.917999 459.716553,229.476852 
	C474.571075,250.730576 481.360504,274.503723 482.218353,300.202179 
	C482.735657,300.433746 483.252991,300.665314 483.770325,300.896912 
	C506.855530,277.773468 529.940735,254.650055 552.949097,231.603561 
	C552.949097,292.472656 552.949097,353.536316 552.949097,415.140686 
	C521.636169,415.140686 490.580383,415.140686 459.449158,415.140686 
	C459.449158,419.269623 459.449158,422.852661 459.449158,426.540100 
	C521.423462,426.540100 583.135193,426.540100 644.756836,426.540100 
	C644.756836,339.977081 644.756836,253.748886 644.756836,167.205826 
	C587.116821,167.205826 529.815308,167.205826 471.518921,167.205826 
M156.755447,236.727112 
	C175.721146,252.804962 194.686859,268.882812 214.264832,285.479706 
	C216.829407,260.062714 224.930862,237.642960 240.008514,217.593155 
	C224.940796,204.881897 210.036163,192.308228 193.997070,178.777542 
	C214.374634,178.777542 233.249908,178.777542 252.010834,178.777542 
	C252.010834,174.672119 252.010834,171.096893 252.010834,167.437592 
	C186.902908,167.437592 122.147789,167.437592 57.311131,167.437592 
	C57.311131,254.007675 57.311131,340.344757 57.311131,426.611694 
	C122.483543,426.611694 187.247910,426.611694 252.148941,426.611694 
	C252.148941,422.744812 252.148941,419.144043 252.148941,415.006714 
	C217.715210,415.006714 183.488358,415.006714 149.260452,415.006714 
	C149.260452,353.320068 149.260452,292.171661 149.260452,230.413300 
	C151.933914,232.650208 154.080307,234.446121 156.755447,236.727112 
M465.166718,293.634674 
	C463.708344,285.004150 462.249969,276.373627 460.692871,267.158844 
	C423.360046,276.057648 387.155182,284.687592 350.483734,293.428772 
	C353.600983,306.561523 356.620331,319.281647 359.749146,332.463043 
	C380.773010,327.482971 401.373749,322.603149 422.563416,317.583801 
	C419.817413,330.608612 415.284515,341.869171 406.192932,350.494263 
	C386.691254,368.995209 362.898132,374.020691 337.166199,369.965729 
	C296.828644,363.609100 267.770477,323.122955 274.513733,283.719025 
	C282.702972,235.865921 334.847931,205.812332 381.066315,222.515747 
	C387.878265,224.977600 394.246796,228.666367 401.254761,231.993668 
	C408.454010,220.434509 415.804474,208.632538 423.234985,196.702118 
	C421.927612,195.777908 420.992554,195.102707 420.043396,194.447922 
	C377.118134,164.835037 308.206360,174.648743 272.232269,205.813248 
	C214.155243,256.125671 220.546112,337.886353 270.922485,383.977173 
	C318.950714,427.919647 389.977875,416.326050 425.524994,387.472900 
	C454.827484,363.688507 466.444153,331.742035 465.166718,293.634674 
M411.763947,118.684105 
	C410.126831,114.242012 406.839111,113.468216 402.382904,113.494736 
	C371.077606,113.681076 339.770508,113.643097 308.464661,113.512711 
	C305.232697,113.499245 303.416992,114.408051 301.727936,117.236572 
	C293.456238,131.088486 284.921936,144.783524 276.481354,158.534576 
	C274.825684,161.231964 273.174072,163.931824 271.038696,167.417068 
	C328.335052,142.927765 384.551331,141.787552 441.849579,167.754349 
	C431.508423,150.900452 421.819000,135.108765 411.763947,118.684105 
M495.926849,366.384888 
	C488.097961,374.800629 486.981384,385.113098 492.978180,393.617737 
	C498.603638,401.595734 509.471252,404.633575 518.289551,400.523651 
	C526.097046,396.884796 530.330139,390.564667 530.490906,382.021210 
	C530.647705,373.687256 526.821960,367.141724 519.354004,363.361237 
	C511.346832,359.307800 503.576660,360.342621 495.926849,366.384888 
M77.081764,156.476883 
	C79.516258,151.426605 81.950760,146.376343 84.385254,141.326080 
	C85.354332,146.193527 85.115280,150.699203 85.490189,155.153214 
	C85.613457,156.617722 87.326653,157.948410 88.312813,159.340286 
	C89.151497,157.985321 90.678642,156.649063 90.716026,155.272339 
	C90.942009,146.951523 90.968849,138.617264 90.722931,130.297531 
	C90.664490,128.320175 89.311554,126.381065 88.554054,124.424362 
	C87.137413,125.840500 85.257507,127.018425 84.385376,128.714554 
	C80.853706,135.582947 77.632072,142.610764 73.905518,150.395554 
	C70.008652,142.294357 66.683395,135.092117 63.044888,128.051773 
	C62.280354,126.572441 60.364391,125.688164 58.978992,124.529694 
	C58.342022,126.059563 57.186840,127.578453 57.154190,129.121109 
	C56.974503,137.610809 56.926353,146.110886 57.196175,154.595840 
	C57.247204,156.200500 58.935707,157.753082 59.868637,159.329697 
	C60.742138,157.659515 62.211372,156.043701 62.369751,154.308258 
	C62.742359,150.225388 62.489143,146.085419 62.489143,141.968536 
	C66.052521,146.781250 68.415367,151.680710 70.770065,156.584076 
	C72.478813,160.142365 74.446518,160.777863 77.081764,156.476883 
M213.774109,148.226654 
	C213.774872,143.404236 213.824371,138.581207 213.763565,133.759567 
	C213.693893,128.234940 210.814713,124.913391 205.373734,124.652779 
	C199.733398,124.382614 194.060226,124.375610 188.420044,124.644402 
	C182.825211,124.911049 180.094833,128.061630 180.042267,133.692703 
	C179.992615,139.013550 180.010010,144.335266 180.034744,149.656433 
	C180.063675,155.882660 182.716019,158.931046 188.904221,159.279297 
	C193.877686,159.559204 198.881638,159.520401 203.864029,159.365265 
	C210.867767,159.147186 213.609131,156.204163 213.774109,148.226654 
M97.207985,128.093018 
	C96.742775,129.820251 95.926971,131.537277 95.876404,133.276566 
	C95.707291,139.093475 95.738647,144.919571 95.834068,150.739822 
	C95.915115,155.683151 98.691605,158.855026 103.770203,159.149155 
	C109.568527,159.484985 115.416313,159.517410 121.212868,159.176331 
	C126.851097,158.844543 129.451828,155.702484 129.514572,150.018951 
	C129.573318,144.696777 129.577393,139.372925 129.517929,134.050781 
	C129.449554,127.931549 126.540581,124.831764 120.401558,124.614166 
	C115.251587,124.431625 110.064301,124.267570 104.945000,124.701904 
	C102.487587,124.910400 100.149078,126.520432 97.207985,128.093018 
M468.893036,129.806152 
	C472.221954,129.798721 475.566437,129.968399 478.870392,129.677551 
	C479.881683,129.588516 481.402496,128.335693 481.547852,127.432076 
	C481.677917,126.623642 480.247253,124.755028 479.484985,124.743942 
	C474.683624,124.674110 469.777954,124.467903 465.102722,125.347984 
	C461.370941,126.050468 459.586395,129.311630 459.623718,133.302307 
	C459.675110,138.794754 459.586517,144.288544 459.642670,149.780899 
	C459.705444,155.920990 462.522247,158.973892 468.707794,159.291367 
	C473.190643,159.521408 477.693939,159.419601 482.187012,159.368301 
	C491.839966,159.258118 497.501801,149.818253 493.083832,141.031403 
	C492.648285,140.165222 490.996338,139.509018 489.877838,139.459534 
	C485.724640,139.275757 481.544434,139.197144 477.405731,139.503189 
	C476.179443,139.593872 475.056335,141.079330 473.885956,141.925659 
	C475.056183,142.786530 476.163757,144.263214 477.408691,144.389847 
	C480.797211,144.734512 484.243835,144.508270 488.411652,144.508270 
	C487.048889,148.473877 490.356995,153.569229 483.884552,154.033829 
	C478.917023,154.390411 473.872162,154.401520 468.929016,153.901199 
	C467.529358,153.759537 465.396973,151.364273 465.269409,149.860977 
	C464.820740,144.572708 464.903778,139.210846 465.231537,133.904480 
	C465.317352,132.515381 467.019104,131.226105 468.893036,129.806152 
M227.169540,137.152100 
	C233.405167,143.614731 239.572479,150.145966 245.934723,156.481430 
	C247.189987,157.731384 249.196075,158.227325 250.855927,159.070999 
	C251.366821,157.448959 252.289871,155.834366 252.319321,154.203629 
	C252.469543,145.888153 252.397415,137.568481 252.382935,129.250320 
	C252.379257,127.132942 252.834747,124.290413 249.559219,124.785034 
	C248.537094,124.939384 247.264160,127.628555 247.200394,129.201736 
	C246.935623,135.733856 247.089142,142.282944 247.089142,147.138809 
	C239.910538,140.589752 232.242783,133.508057 224.441238,126.576965 
	C223.360855,125.617134 221.619324,125.401451 220.183868,124.841263 
	C219.696671,126.145752 218.806519,127.444397 218.787506,128.755676 
	C218.662048,137.404755 218.601425,146.059937 218.838989,154.704346 
	C218.881271,156.243073 220.415146,157.740845 221.260269,159.257553 
	C222.226959,157.664871 223.944168,156.110489 224.027695,154.472763 
	C224.353027,148.094315 224.160339,141.689468 224.160339,134.443100 
	C225.482727,135.600281 226.063171,136.108215 227.169540,137.152100 
M597.727173,124.580650 
	C590.909607,124.574799 584.087402,124.718788 577.276428,124.503937 
	C573.508423,124.385063 572.338623,125.883217 572.418518,129.505142 
	C572.601746,137.815231 572.324158,146.137222 572.603821,154.441925 
	C572.658691,156.072266 574.381958,157.646423 575.335815,159.246475 
	C576.211670,157.600906 577.789612,155.978333 577.844360,154.305893 
	C578.108826,146.225235 577.963501,138.131165 577.963501,129.788849 
	C584.346008,129.788849 590.144287,129.811310 595.942261,129.779770 
	C599.051880,129.762863 600.929993,130.708054 600.982910,134.341187 
	C601.037842,138.119720 599.215515,139.396744 595.831177,139.388535 
	C591.341553,139.377640 586.843140,139.234390 582.368469,139.493027 
	C581.249390,139.557709 580.206726,140.942978 579.128906,141.721329 
	C580.225220,142.649292 581.273560,144.301682 582.426331,144.378021 
	C587.061951,144.685013 591.730652,144.562439 596.385437,144.489792 
	C602.413269,144.395721 605.710632,141.822388 606.327942,136.881363 
	C607.228882,129.669601 605.256104,126.562935 597.727173,124.580650 
M616.894287,141.497589 
	C624.322266,141.042572 631.750305,140.587570 639.514343,140.111969 
	C639.514343,146.068115 639.339661,150.889755 639.634155,155.682571 
	C639.710083,156.918304 641.260803,158.063431 642.134033,159.250183 
	C643.112915,158.197372 644.916626,157.163513 644.941345,156.088745 
	C645.159363,146.599060 645.139771,137.100479 644.943604,127.609642 
	C644.922546,126.589386 643.332153,125.601570 642.469727,124.598694 
	C641.486511,125.680779 639.910461,126.637901 639.650269,127.872383 
	C639.187073,130.069977 639.520081,132.435394 639.520081,134.850159 
	C631.688782,134.850159 624.311462,134.850159 616.809937,134.850159 
	C616.809937,132.495560 617.158936,130.413330 616.696777,128.530182 
	C616.343140,127.089493 614.963928,125.900513 614.040955,124.599548 
	C613.083923,125.855972 611.331909,127.091080 611.297546,128.372269 
	C611.056458,137.361038 611.057678,146.362228 611.291748,155.351364 
	C611.326355,156.679459 612.998230,157.964920 613.912537,159.270096 
	C614.878296,158.010864 616.566406,156.811600 616.676941,155.481339 
	C617.034119,151.179916 616.811584,146.830338 616.894287,141.497589 
M356.108856,451.207245 
	C354.981659,447.744781 353.854431,444.282349 352.760620,440.922424 
	C350.600372,440.922424 348.693237,440.922424 346.785339,440.922424 
	C346.785339,451.495392 346.785339,461.721527 346.785339,472.037109 
	C348.625122,472.037109 350.194458,472.037109 352.219574,472.037109 
	C352.219574,466.593079 352.219574,461.436676 352.219574,456.280304 
	C354.614044,460.099365 356.309235,464.014282 357.350220,468.096008 
	C358.457245,472.436676 360.802612,473.255463 364.589752,471.783936 
	C364.589752,461.463440 364.589752,451.238373 364.589752,440.847961 
	C362.752747,440.847961 361.170410,440.847961 359.059509,440.847961 
	C359.059509,446.534760 359.059509,451.970459 359.059509,457.406128 
	C358.775696,457.430908 358.491913,457.455688 358.208099,457.480469 
	C357.600220,455.640930 356.992340,453.801422 356.108856,451.207245 
M90.300354,448.609314 
	C90.300354,456.379395 90.300354,464.149506 90.300354,472.065735 
	C92.398491,472.065735 93.969093,472.065735 95.858536,472.065735 
	C95.858536,468.986572 95.751030,466.181366 95.917717,463.392578 
	C95.974899,462.436005 96.718094,461.520447 97.147873,460.586151 
	C98.018044,461.372101 99.327217,462.000519 99.676300,462.973450 
	C100.736694,465.928741 101.425964,469.017151 102.267410,472.081635 
	C104.219193,472.081635 105.969757,472.081635 108.081886,472.081635 
	C107.664757,470.483673 107.329132,469.226501 107.008736,467.965485 
	C105.861168,463.448914 104.897194,459.457581 106.474640,454.259369 
	C108.659676,447.058929 107.640427,441.797821 100.866325,440.804230 
	C97.500450,440.310516 94.002335,440.718353 90.300369,440.718353 
	C90.300369,443.359619 90.300369,445.505920 90.300354,448.609314 
M399.150055,462.136444 
	C397.833923,454.996979 396.517822,447.857483 395.226227,440.851135 
	C392.440948,440.851135 390.176971,440.851135 387.665314,440.851135 
	C385.732819,451.305725 383.840607,461.542542 381.900543,472.038147 
	C383.980927,472.038147 385.713226,472.038147 387.481934,472.038147 
	C387.994690,469.663513 388.447357,467.567383 388.922791,465.365601 
	C390.665283,465.365601 392.252319,465.365601 393.948090,465.365601 
	C394.435974,467.690125 394.875061,469.782043 395.354980,472.068665 
	C397.179962,472.068665 398.918823,472.068665 400.956696,472.068665 
	C400.362335,468.830536 399.825470,465.905457 399.150055,462.136444 
M554.460815,464.718811 
	C554.460815,456.791748 554.460815,448.864716 554.460815,440.840149 
	C552.317078,440.840149 550.723816,440.840149 548.744568,440.840149 
	C548.744568,448.361084 548.926208,455.656433 548.604065,462.929474 
	C548.532593,464.543854 546.684082,466.079498 545.653809,467.651398 
	C544.762390,466.111450 543.160339,464.598297 543.101074,463.026947 
	C542.826172,455.747589 542.979553,448.452087 542.979553,441.030457 
	C540.968994,441.030457 539.294617,441.030457 537.524902,441.030457 
	C537.524902,448.780670 537.462646,456.098999 537.545288,463.415680 
	C537.607422,468.918457 540.068359,471.995331 544.681335,472.677673 
	C549.396057,473.375061 552.791809,470.882721 554.460815,464.718811 
M312.697784,466.446442 
	C314.692871,471.394135 318.082825,473.596405 322.552704,472.572723 
	C327.262604,471.494080 329.464844,468.411987 329.366058,463.550018 
	C329.268188,458.734406 329.422058,453.913727 329.326691,449.098022 
	C329.218964,443.657867 325.768311,440.096802 320.823059,440.122833 
	C315.968658,440.148376 312.599701,443.359619 312.428528,448.686920 
	C312.247406,454.322906 312.487213,459.972473 312.697784,466.446442 
M139.528488,469.727356 
	C140.079147,467.865234 141.024139,466.020020 141.104782,464.137756 
	C141.325439,458.988525 141.243805,453.822784 141.165436,448.665375 
	C141.087585,443.542450 137.678665,440.115570 132.836426,440.116486 
	C127.982109,440.117401 124.498070,443.471252 124.330444,448.626648 
	C124.173691,453.447388 124.359413,458.278320 124.273727,463.102631 
	C124.206650,466.879456 125.185036,470.112000 128.800430,471.833160 
	C132.445694,473.568604 135.916946,473.107391 139.528488,469.727356 
M645.044373,446.205841 
	C643.491028,441.533722 640.050415,439.648651 635.411682,440.301697 
	C631.383667,440.868774 628.617920,443.388062 628.433716,447.583069 
	C628.171509,453.554260 628.119019,459.561493 628.470825,465.524200 
	C628.743713,470.148193 632.923096,473.155212 637.577087,472.767090 
	C642.055176,472.393616 645.055847,469.211304 645.118713,464.529694 
	C645.196838,458.712921 645.128784,452.894196 645.044373,446.205841 
M588.283691,462.268005 
	C588.282959,457.622467 588.339661,452.975983 588.265198,448.331635 
	C588.192078,443.771851 585.568604,441.252899 581.258057,440.753998 
	C578.215271,440.401886 575.098938,440.685883 571.997131,440.685883 
	C571.997131,451.476532 571.997131,461.697662 571.997131,471.882568 
	C584.075989,473.412994 587.852600,471.358398 588.283691,462.268005 
M266.839752,447.171844 
	C268.529541,447.504059 270.219360,447.836304 271.909149,448.168518 
	C272.265167,447.576843 272.621155,446.985168 272.977173,446.393494 
	C271.185852,444.536957 269.709656,442.044525 267.532898,440.965881 
	C263.827484,439.129700 259.807373,439.659058 257.216095,443.233643 
	C254.547546,446.914825 255.101791,450.900391 258.065369,454.234406 
	C260.596893,457.082397 263.784058,459.379944 266.093964,462.373993 
	C266.844269,463.346466 265.739746,465.749939 265.483612,467.498871 
	C264.014984,466.934357 261.578064,466.703247 261.248596,465.746460 
	C259.957825,461.997864 257.705078,463.237946 255.339005,463.792755 
	C256.141937,469.361389 257.993683,471.845428 262.102417,472.569214 
	C265.972321,473.250916 269.498383,472.559387 271.611145,468.806976 
	C273.945587,464.660767 272.346893,461.047119 269.596405,457.839478 
	C268.312408,456.342010 266.520142,455.291290 265.134888,453.866425 
	C263.883179,452.578918 262.500122,451.200562 261.881134,449.590729 
	C261.444702,448.455658 262.189453,446.866455 262.406799,445.480042 
	C263.784851,445.818634 265.162933,446.157257 266.839752,447.171844 
M164.292145,124.656914 
	C155.315018,124.629677 146.335175,124.483788 137.363327,124.688309 
	C135.811371,124.723694 134.293274,126.243904 132.759552,127.078262 
	C134.227661,127.978989 135.618683,129.447556 137.180298,129.659576 
	C140.219559,130.072220 143.354431,129.780441 146.829346,129.780441 
	C146.829346,132.061386 146.829605,133.691574 146.829285,135.321762 
	C146.827988,142.138519 146.701111,148.959732 146.943329,155.767822 
	C146.985809,156.961624 148.576996,158.100311 149.452911,159.264435 
	C150.371948,158.157272 151.614365,157.177231 152.114365,155.905350 
	C152.567276,154.753189 152.210754,153.282745 152.210770,151.952652 
	C152.210831,144.685013 152.210800,137.417374 152.210800,129.773514 
	C156.234711,129.773514 159.714172,129.961380 163.163910,129.721664 
	C166.749100,129.472549 167.557968,127.754776 164.292145,124.656914 
M474.321808,471.392456 
	C479.823364,473.595520 484.051331,472.927429 486.466614,469.473297 
	C489.051422,465.776703 488.173798,461.063782 484.000824,456.945801 
	C482.584869,455.548523 480.767670,454.534546 479.462158,453.055603 
	C478.300018,451.739136 477.240295,450.111053 476.819122,448.447357 
	C476.578461,447.496857 477.429565,445.674103 478.298462,445.221130 
	C479.035828,444.836700 481.137909,445.527222 481.540070,446.307220 
	C483.369659,449.855865 485.405975,447.890869 487.637115,447.153595 
	C486.714264,442.399292 483.729858,439.876221 479.571930,440.327148 
	C476.835419,440.623871 473.437775,442.339783 471.907654,444.522064 
	C469.482147,447.981293 470.881958,451.896088 473.845490,454.902161 
	C475.594971,456.676727 477.572266,458.224731 479.363861,459.960541 
	C480.301422,460.868927 481.700653,461.934021 481.747559,462.979675 
	C481.817505,464.538605 480.876312,466.142883 480.365356,467.727875 
	C479.026733,467.108948 476.835785,466.784851 476.501526,465.818512 
	C475.255646,462.216583 473.089478,463.042084 469.703094,464.154846 
	C471.155914,466.617828 472.432617,468.782318 474.321808,471.392456 
M232.506393,466.828400 
	C230.313339,468.895996 228.254166,468.243530 227.386246,465.805695 
	C226.116318,462.238770 224.049164,462.988983 221.340210,463.960693 
	C221.899948,468.424896 223.768860,471.671356 228.328598,472.559296 
	C232.187790,473.310852 235.737473,472.531952 237.812042,468.792603 
	C240.092194,464.682739 238.628036,461.032776 235.780197,457.845734 
	C234.465637,456.374573 232.668518,455.339661 231.318115,453.894043 
	C229.990097,452.472382 228.568222,450.920013 227.927872,449.156219 
	C227.543137,448.096527 228.574799,446.522583 228.969910,445.179749 
	C230.236298,445.606537 231.508286,446.017548 232.767746,446.463928 
	C234.508072,447.080780 236.238937,447.724274 238.787979,448.652954 
	C237.878647,442.821747 235.218735,440.117004 231.258148,440.403412 
	C228.359283,440.613068 224.763992,442.154480 222.990631,444.332794 
	C220.484619,447.411102 221.623032,451.373535 224.333450,454.339111 
	C226.231186,456.415497 228.760330,457.956177 230.460037,460.158600 
	C231.729004,461.802917 232.123199,464.122314 232.506393,466.828400 
M56.881344,466.309021 
	C56.881344,468.224091 56.881344,470.139130 56.881344,472.418671 
	C59.082829,472.249237 60.626419,472.130432 62.524391,471.984344 
	C62.524391,467.967529 62.524391,464.395538 62.524391,460.897217 
	C72.043701,459.503784 74.720383,456.225067 73.565292,447.797363 
	C72.667511,441.247009 68.145187,439.384491 56.881546,441.122131 
	C56.881546,449.160889 56.881546,457.257935 56.881344,466.309021 
M189.894516,463.477600 
	C189.894516,466.260620 189.894516,469.043671 189.894516,471.972351 
	C195.203979,471.972351 200.064972,471.972351 205.233887,471.972351 
	C205.047546,470.217224 204.900269,468.830017 204.710587,467.043335 
	C201.445190,467.043335 198.527176,467.043335 195.619324,467.043335 
	C195.619324,464.173157 195.619324,461.748932 195.619324,459.008087 
	C197.916214,458.905914 199.974167,458.814423 202.371323,458.707794 
	C202.257156,456.906036 202.168884,455.512878 202.084366,454.179016 
	C199.702698,454.054321 197.753510,453.952240 195.658188,453.842529 
	C195.658188,451.001556 195.658188,448.457458 195.658188,445.651031 
	C198.861679,445.510376 201.795441,445.381531 204.817963,445.248810 
	C204.817963,443.648041 204.817963,442.255219 204.817963,440.850342 
	C199.747314,440.850342 194.974960,440.850342 189.894363,440.850342 
	C189.894363,448.220795 189.894363,455.350647 189.894516,463.477600 
M163.972641,460.755096 
	C166.118835,459.806061 168.265015,458.857025 170.756805,457.755127 
	C170.756805,457.035370 170.756805,455.675018 170.756805,454.278015 
	C168.349747,454.084717 166.276901,453.918243 164.307312,453.760040 
	C164.307312,450.769135 164.307312,448.211334 164.307312,445.382263 
	C167.447479,445.382263 170.242294,445.382263 173.341049,445.382263 
	C173.341049,443.729004 173.341049,442.359161 173.341049,440.910675 
	C168.362411,440.910675 163.630585,440.910675 158.843567,440.910675 
	C158.843567,451.468628 158.843567,461.717896 158.843567,472.320312 
	C160.684540,472.238373 162.259201,472.168274 163.962936,472.092438 
	C163.962936,468.341217 163.962936,465.016937 163.972641,460.755096 
M423.720673,461.482971 
	C423.720673,454.594086 423.720673,447.705170 423.720673,440.473206 
	C421.410522,440.607025 419.830963,440.698486 418.275696,440.788574 
	C418.275696,451.453247 418.275696,461.687317 418.275696,472.145203 
	C423.073639,472.145203 427.665955,472.145203 432.529694,472.145203 
	C432.529694,470.606750 432.529694,469.223511 432.529694,467.622437 
	C429.575378,467.471252 426.832642,467.330872 423.720276,467.171570 
	C423.720276,465.395538 423.720276,463.937927 423.720673,461.482971 
M515.192139,460.495911 
	C515.192139,455.584625 515.192139,450.673340 515.192139,445.836090 
	C517.441956,445.491547 519.012756,445.251007 520.800842,444.977173 
	C520.683411,443.429901 520.588379,442.177887 520.492859,440.918884 
	C514.953064,440.918884 509.718109,440.918884 504.400177,440.918884 
	C504.400177,442.508545 504.400177,443.775299 504.400177,445.157227 
	C506.217743,445.371094 507.833282,445.561188 509.925110,445.807343 
	C509.925110,454.671631 509.925110,463.398834 509.925110,472.398102 
	C511.997925,472.238342 513.548035,472.118835 515.192139,471.992126 
	C515.192139,468.137421 515.192139,464.814789 515.192139,460.495911 
M175.045853,148.459351 
	C175.046814,141.664185 175.172180,134.864563 174.930389,128.078049 
	C174.888428,126.900528 173.293976,125.778320 172.416595,124.630569 
	C171.498581,125.581322 169.802841,126.516083 169.782913,127.485298 
	C169.585403,137.092896 169.587723,146.707764 169.782700,156.315521 
	C169.802856,157.309631 171.436508,158.271011 172.321487,159.247574 
	C173.226379,158.298859 174.718750,157.456619 174.913971,156.379318 
	C175.321136,154.132355 175.042770,151.761154 175.045853,148.459351 
M289.717133,447.508789 
	C289.717133,455.605408 289.717133,463.702057 289.717133,472.037506 
	C291.652588,472.037506 293.188873,472.037506 294.743591,472.037506 
	C294.743591,461.432220 294.743591,451.084778 294.743591,440.888245 
	C292.955078,440.888245 291.528015,440.888245 289.717010,440.888245 
	C289.717010,442.933289 289.717010,444.721558 289.717133,447.508789 
M611.132874,464.468384 
	C611.132874,456.565674 611.132874,448.662994 611.132874,440.863403 
	C609.059570,440.863403 607.627747,440.863403 606.112854,440.863403 
	C606.112854,451.445282 606.112854,461.789764 606.112854,472.050140 
	C607.875061,472.050140 609.297363,472.050140 611.132507,472.050140 
	C611.132507,469.703186 611.132507,467.582001 611.132874,464.468384 
z"/>
<path fill="#030303" opacity="1.000000" stroke="none" 
	d="
M472.016327,167.205826 
	C529.815308,167.205826 587.116821,167.205826 644.756836,167.205826 
	C644.756836,253.748886 644.756836,339.977081 644.756836,426.540100 
	C583.135193,426.540100 521.423462,426.540100 459.449158,426.540100 
	C459.449158,422.852661 459.449158,419.269623 459.449158,415.140686 
	C490.580383,415.140686 521.636169,415.140686 552.949097,415.140686 
	C552.949097,353.536316 552.949097,292.472656 552.949097,231.603561 
	C529.940735,254.650055 506.855530,277.773468 483.770325,300.896912 
	C483.252991,300.665314 482.735657,300.433746 482.218353,300.202179 
	C481.360504,274.503723 474.571075,250.730576 459.716553,229.476852 
	C476.349762,212.917999 492.855774,196.485779 510.349579,179.070129 
	C492.583954,179.070129 476.110687,179.070129 459.421814,179.070129 
	C459.421814,174.843765 459.421814,171.275894 459.421814,167.205826 
	C463.603119,167.205826 467.561035,167.205826 472.016327,167.205826 
z"/>
<path fill="#030303" opacity="1.000000" stroke="none" 
	d="
M156.491089,236.484558 
	C154.080307,234.446121 151.933914,232.650208 149.260452,230.413300 
	C149.260452,292.171661 149.260452,353.320068 149.260452,415.006714 
	C183.488358,415.006714 217.715210,415.006714 252.148941,415.006714 
	C252.148941,419.144043 252.148941,422.744812 252.148941,426.611694 
	C187.247910,426.611694 122.483543,426.611694 57.311131,426.611694 
	C57.311131,340.344757 57.311131,254.007675 57.311131,167.437592 
	C122.147789,167.437592 186.902908,167.437592 252.010834,167.437592 
	C252.010834,171.096893 252.010834,174.672119 252.010834,178.777542 
	C233.249908,178.777542 214.374634,178.777542 193.997070,178.777542 
	C210.036163,192.308228 224.940796,204.881897 240.008514,217.593155 
	C224.930862,237.642960 216.829407,260.062714 214.264832,285.479706 
	C194.686859,268.882812 175.721146,252.804962 156.491089,236.484558 
z"/>
<path fill="#ED2225" opacity="1.000000" stroke="none" 
	d="
M465.189148,294.118652 
	C466.444153,331.742035 454.827484,363.688507 425.524994,387.472900 
	C389.977875,416.326050 318.950714,427.919647 270.922485,383.977173 
	C220.546112,337.886353 214.155243,256.125671 272.232269,205.813248 
	C308.206360,174.648743 377.118134,164.835037 420.043396,194.447922 
	C420.992554,195.102707 421.927612,195.777908 423.234985,196.702118 
	C415.804474,208.632538 408.454010,220.434509 401.254761,231.993668 
	C394.246796,228.666367 387.878265,224.977600 381.066315,222.515747 
	C334.847931,205.812332 282.702972,235.865921 274.513733,283.719025 
	C267.770477,323.122955 296.828644,363.609100 337.166199,369.965729 
	C362.898132,374.020691 386.691254,368.995209 406.192932,350.494263 
	C415.284515,341.869171 419.817413,330.608612 422.563416,317.583801 
	C401.373749,322.603149 380.773010,327.482971 359.749146,332.463043 
	C356.620331,319.281647 353.600983,306.561523 350.483734,293.428772 
	C387.155182,284.687592 423.360046,276.057648 460.692871,267.158844 
	C462.249969,276.373627 463.708344,285.004150 465.189148,294.118652 
z"/>
<path fill="#040404" opacity="1.000000" stroke="none" 
	d="
M411.946777,119.000595 
	C421.819000,135.108765 431.508423,150.900452 441.849579,167.754349 
	C384.551331,141.787552 328.335052,142.927765 271.038696,167.417068 
	C273.174072,163.931824 274.825684,161.231964 276.481354,158.534576 
	C284.921936,144.783524 293.456238,131.088486 301.727936,117.236572 
	C303.416992,114.408051 305.232697,113.499245 308.464661,113.512711 
	C339.770508,113.643097 371.077606,113.681076 402.382904,113.494736 
	C406.839111,113.468216 410.126831,114.242012 411.946777,119.000595 
z"/>
<path fill="#ED2326" opacity="1.000000" stroke="none" 
	d="
M496.200958,366.147522 
	C503.576660,360.342621 511.346832,359.307800 519.354004,363.361237 
	C526.821960,367.141724 530.647705,373.687256 530.490906,382.021210 
	C530.330139,390.564667 526.097046,396.884796 518.289551,400.523651 
	C509.471252,404.633575 498.603638,401.595734 492.978180,393.617737 
	C486.981384,385.113098 488.097961,374.800629 496.200958,366.147522 
z"/>
<path fill="#2D292A" opacity="1.000000" stroke="none" 
	d="
M76.947128,156.808472 
	C74.446518,160.777863 72.478813,160.142365 70.770065,156.584076 
	C68.415367,151.680710 66.052521,146.781250 62.489143,141.968536 
	C62.489143,146.085419 62.742359,150.225388 62.369751,154.308258 
	C62.211372,156.043701 60.742138,157.659515 59.868637,159.329697 
	C58.935707,157.753082 57.247204,156.200500 57.196175,154.595840 
	C56.926353,146.110886 56.974503,137.610809 57.154190,129.121109 
	C57.186840,127.578453 58.342022,126.059563 58.978992,124.529694 
	C60.364391,125.688164 62.280354,126.572441 63.044888,128.051773 
	C66.683395,135.092117 70.008652,142.294357 73.905518,150.395554 
	C77.632072,142.610764 80.853706,135.582947 84.385376,128.714554 
	C85.257507,127.018425 87.137413,125.840500 88.554054,124.424362 
	C89.311554,126.381065 90.664490,128.320175 90.722931,130.297531 
	C90.968849,138.617264 90.942009,146.951523 90.716026,155.272339 
	C90.678642,156.649063 89.151497,157.985321 88.312813,159.340286 
	C87.326653,157.948410 85.613457,156.617722 85.490189,155.153214 
	C85.115280,150.699203 85.354332,146.193527 84.385254,141.326080 
	C81.950760,146.376343 79.516258,151.426605 76.947128,156.808472 
z"/>
<path fill="#2E2B2B" opacity="1.000000" stroke="none" 
	d="
M213.774384,148.684326 
	C213.609131,156.204163 210.867767,159.147186 203.864029,159.365265 
	C198.881638,159.520401 193.877686,159.559204 188.904221,159.279297 
	C182.716019,158.931046 180.063675,155.882660 180.034744,149.656433 
	C180.010010,144.335266 179.992615,139.013550 180.042267,133.692703 
	C180.094833,128.061630 182.825211,124.911049 188.420044,124.644402 
	C194.060226,124.375610 199.733398,124.382614 205.373734,124.652779 
	C210.814713,124.913391 213.693893,128.234940 213.763565,133.759567 
	C213.824371,138.581207 213.774872,143.404236 213.774384,148.684326 
M195.541168,154.106964 
	C198.033371,154.107117 200.529175,154.021942 203.016907,154.127411 
	C206.756561,154.285934 208.523788,152.808167 208.348236,148.851807 
	C208.134857,144.042999 208.223083,139.216034 208.323624,134.399887 
	C208.382507,131.579620 207.333633,129.871948 204.390839,129.835281 
	C199.407486,129.773178 194.422318,129.773926 189.438919,129.833008 
	C186.566620,129.867035 185.320160,131.445282 185.362015,134.308563 
	C185.437286,139.458008 185.431168,144.609909 185.367126,149.759628 
	C185.330582,152.699097 186.799759,154.018860 189.592316,154.090775 
	C191.252731,154.133514 192.915009,154.103912 195.541168,154.106964 
z"/>
<path fill="#2A2627" opacity="1.000000" stroke="none" 
	d="
M97.482346,127.794380 
	C100.149078,126.520432 102.487587,124.910400 104.945000,124.701904 
	C110.064301,124.267570 115.251587,124.431625 120.401558,124.614166 
	C126.540581,124.831764 129.449554,127.931549 129.517929,134.050781 
	C129.577393,139.372925 129.573318,144.696777 129.514572,150.018951 
	C129.451828,155.702484 126.851097,158.844543 121.212868,159.176331 
	C115.416313,159.517410 109.568527,159.484985 103.770203,159.149155 
	C98.691605,158.855026 95.915115,155.683151 95.834068,150.739822 
	C95.738647,144.919571 95.707291,139.093475 95.876404,133.276566 
	C95.926971,131.537277 96.742775,129.820251 97.482346,127.794380 
M124.092949,150.109665 
	C124.092422,144.780670 124.030121,139.450668 124.115646,134.123062 
	C124.163261,131.156937 122.745453,129.817886 119.912834,129.803085 
	C115.083588,129.777832 110.254074,129.782715 105.424751,129.798065 
	C102.268044,129.808105 101.016815,131.497253 101.068748,134.561188 
	C101.153404,139.555695 101.147385,144.553543 101.070389,149.548294 
	C101.021301,152.732620 102.586662,154.113358 105.629280,154.113220 
	C110.292145,154.113007 114.976631,154.365158 119.605797,153.969803 
	C121.164909,153.836655 122.583511,152.058258 124.092949,150.109665 
z"/>
<path fill="#292526" opacity="1.000000" stroke="none" 
	d="
M468.435883,129.848572 
	C467.019104,131.226105 465.317352,132.515381 465.231537,133.904480 
	C464.903778,139.210846 464.820740,144.572708 465.269409,149.860977 
	C465.396973,151.364273 467.529358,153.759537 468.929016,153.901199 
	C473.872162,154.401520 478.917023,154.390411 483.884552,154.033829 
	C490.356995,153.569229 487.048889,148.473877 488.411652,144.508270 
	C484.243835,144.508270 480.797211,144.734512 477.408691,144.389847 
	C476.163757,144.263214 475.056183,142.786530 473.885956,141.925659 
	C475.056335,141.079330 476.179443,139.593872 477.405731,139.503189 
	C481.544434,139.197144 485.724640,139.275757 489.877838,139.459534 
	C490.996338,139.509018 492.648285,140.165222 493.083832,141.031403 
	C497.501801,149.818253 491.839966,159.258118 482.187012,159.368301 
	C477.693939,159.419601 473.190643,159.521408 468.707794,159.291367 
	C462.522247,158.973892 459.705444,155.920990 459.642670,149.780899 
	C459.586517,144.288544 459.675110,138.794754 459.623718,133.302307 
	C459.586395,129.311630 461.370941,126.050468 465.102722,125.347984 
	C469.777954,124.467903 474.683624,124.674110 479.484985,124.743942 
	C480.247253,124.755028 481.677917,126.623642 481.547852,127.432076 
	C481.402496,128.335693 479.881683,129.588516 478.870392,129.677551 
	C475.566437,129.968399 472.221954,129.798721 468.435883,129.848572 
z"/>
<path fill="#262223" opacity="1.000000" stroke="none" 
	d="
M226.906586,136.884125 
	C226.063171,136.108215 225.482727,135.600281 224.160339,134.443100 
	C224.160339,141.689468 224.353027,148.094315 224.027695,154.472763 
	C223.944168,156.110489 222.226959,157.664871 221.260254,159.257538 
	C220.415146,157.740845 218.881271,156.243073 218.838989,154.704346 
	C218.601425,146.059937 218.662048,137.404755 218.787506,128.755676 
	C218.806519,127.444397 219.696671,126.145752 220.183868,124.841263 
	C221.619324,125.401451 223.360855,125.617134 224.441238,126.576965 
	C232.242783,133.508057 239.910538,140.589752 247.089142,147.138809 
	C247.089142,142.282944 246.935623,135.733856 247.200394,129.201736 
	C247.264160,127.628555 248.537094,124.939384 249.559219,124.785034 
	C252.834747,124.290413 252.379257,127.132942 252.382935,129.250320 
	C252.397415,137.568481 252.469543,145.888153 252.319321,154.203629 
	C252.289871,155.834366 251.366821,157.448959 250.855927,159.070999 
	C249.196075,158.227325 247.189987,157.731384 245.934723,156.481430 
	C239.572479,150.145966 233.405167,143.614731 226.906586,136.884125 
z"/>
<path fill="#292526" opacity="1.000000" stroke="none" 
	d="
M598.147461,124.620903 
	C605.256104,126.562935 607.228882,129.669601 606.327942,136.881363 
	C605.710632,141.822388 602.413269,144.395721 596.385437,144.489792 
	C591.730652,144.562439 587.061951,144.685013 582.426331,144.378021 
	C581.273560,144.301682 580.225220,142.649292 579.128906,141.721313 
	C580.206726,140.942978 581.249390,139.557709 582.368469,139.493027 
	C586.843140,139.234390 591.341553,139.377640 595.831177,139.388535 
	C599.215515,139.396744 601.037842,138.119720 600.982910,134.341187 
	C600.929993,130.708054 599.051880,129.762863 595.942261,129.779770 
	C590.144287,129.811310 584.346008,129.788849 577.963501,129.788849 
	C577.963501,138.131165 578.108826,146.225235 577.844360,154.305893 
	C577.789612,155.978333 576.211670,157.600906 575.335815,159.246490 
	C574.381958,157.646423 572.658691,156.072266 572.603821,154.441925 
	C572.324158,146.137222 572.601746,137.815231 572.418518,129.505142 
	C572.338623,125.883217 573.508423,124.385063 577.276428,124.503937 
	C584.087402,124.718788 590.909607,124.574799 598.147461,124.620903 
z"/>
<path fill="#2D292A" opacity="1.000000" stroke="none" 
	d="
M616.853333,141.998444 
	C616.811584,146.830338 617.034119,151.179916 616.676941,155.481339 
	C616.566406,156.811600 614.878296,158.010864 613.912537,159.270096 
	C612.998230,157.964920 611.326355,156.679459 611.291748,155.351364 
	C611.057678,146.362228 611.056458,137.361038 611.297546,128.372269 
	C611.331909,127.091080 613.083923,125.855972 614.040955,124.599564 
	C614.963928,125.900513 616.343140,127.089493 616.696777,128.530182 
	C617.158936,130.413330 616.809937,132.495560 616.809937,134.850159 
	C624.311462,134.850159 631.688782,134.850159 639.520081,134.850159 
	C639.520081,132.435394 639.187073,130.069977 639.650269,127.872383 
	C639.910461,126.637901 641.486511,125.680779 642.469727,124.598694 
	C643.332153,125.601570 644.922546,126.589386 644.943604,127.609642 
	C645.139771,137.100479 645.159363,146.599060 644.941345,156.088745 
	C644.916626,157.163513 643.112915,158.197372 642.134033,159.250183 
	C641.260803,158.063431 639.710083,156.918304 639.634155,155.682571 
	C639.339661,150.889755 639.514343,146.068115 639.514343,140.111969 
	C631.750305,140.587570 624.322266,141.042572 616.853333,141.998444 
z"/>
<path fill="#101010" opacity="1.000000" stroke="none" 
	d="
M356.246643,451.584564 
	C356.992340,453.801422 357.600220,455.640930 358.208099,457.480469 
	C358.491913,457.455688 358.775696,457.430908 359.059509,457.406128 
	C359.059509,451.970459 359.059509,446.534760 359.059509,440.847961 
	C361.170410,440.847961 362.752747,440.847961 364.589752,440.847961 
	C364.589752,451.238373 364.589752,461.463440 364.589752,471.783936 
	C360.802612,473.255463 358.457245,472.436676 357.350220,468.096008 
	C356.309235,464.014282 354.614044,460.099365 352.219574,456.280304 
	C352.219574,461.436676 352.219574,466.593079 352.219574,472.037109 
	C350.194458,472.037109 348.625122,472.037109 346.785339,472.037109 
	C346.785339,461.721527 346.785339,451.495392 346.785339,440.922424 
	C348.693237,440.922424 350.600372,440.922424 352.760620,440.922424 
	C353.854431,444.282349 354.981659,447.744781 356.246643,451.584564 
z"/>
<path fill="#2B2728" opacity="1.000000" stroke="none" 
	d="
M535.990540,155.972504 
	C540.551575,146.215958 545.048645,136.428680 549.710571,126.720612 
	C551.209167,123.599991 553.551697,123.333687 555.151428,126.523438 
	C559.839172,135.870392 564.338745,145.315125 568.681335,154.826889 
	C569.164429,155.885010 568.163269,157.620819 567.850464,159.042358 
	C566.531067,158.404068 565.208252,157.772659 563.898071,157.116028 
	C563.777344,157.055527 563.697083,156.842255 563.665466,156.686264 
	C561.729370,147.138260 554.376160,147.646591 547.570435,148.830856 
	C545.402527,149.208115 543.647827,152.939697 542.057922,155.368103 
	C540.627258,157.553314 540.064392,160.734924 536.181030,157.861298 
	C536.019348,156.785187 536.004944,156.378845 535.990540,155.972504 
M548.384216,142.972595 
	C551.122559,143.094818 553.860901,143.217056 557.302063,143.370651 
	C555.581360,139.805801 554.203186,136.950485 552.527283,133.478531 
	C550.861938,136.865417 549.556824,139.519608 548.384216,142.972595 
z"/>
<path fill="#141414" opacity="1.000000" stroke="none" 
	d="
M90.300362,448.130768 
	C90.300369,445.505920 90.300369,443.359619 90.300369,440.718353 
	C94.002335,440.718353 97.500450,440.310516 100.866325,440.804230 
	C107.640427,441.797821 108.659676,447.058929 106.474640,454.259369 
	C104.897194,459.457581 105.861168,463.448914 107.008736,467.965485 
	C107.329132,469.226501 107.664757,470.483673 108.081886,472.081635 
	C105.969757,472.081635 104.219193,472.081635 102.267410,472.081635 
	C101.425964,469.017151 100.736694,465.928741 99.676300,462.973450 
	C99.327217,462.000519 98.018044,461.372101 97.147873,460.586151 
	C96.718094,461.520447 95.974899,462.436005 95.917717,463.392578 
	C95.751030,466.181366 95.858536,468.986572 95.858536,472.065735 
	C93.969093,472.065735 92.398491,472.065735 90.300354,472.065735 
	C90.300354,464.149506 90.300354,456.379395 90.300362,448.130768 
M99.096481,445.717468 
	C95.374634,446.284882 94.734985,448.768402 96.829414,456.421387 
	C98.558762,455.350952 101.243690,454.518677 101.332130,453.467865 
	C101.539543,451.003174 100.504211,448.433868 99.096481,445.717468 
z"/>
<path fill="#101010" opacity="1.000000" stroke="none" 
	d="
M399.219299,462.558411 
	C399.825470,465.905457 400.362335,468.830536 400.956696,472.068665 
	C398.918823,472.068665 397.179962,472.068665 395.354980,472.068665 
	C394.875061,469.782043 394.435974,467.690125 393.948090,465.365601 
	C392.252319,465.365601 390.665283,465.365601 388.922791,465.365601 
	C388.447357,467.567383 387.994690,469.663513 387.481934,472.038147 
	C385.713226,472.038147 383.980927,472.038147 381.900543,472.038147 
	C383.840607,461.542542 385.732819,451.305725 387.665314,440.851135 
	C390.176971,440.851135 392.440948,440.851135 395.226227,440.851135 
	C396.517822,447.857483 397.833923,454.996979 399.219299,462.558411 
z"/>
<path fill="#2D292A" opacity="1.000000" stroke="none" 
	d="
M535.647766,155.957520 
	C536.004944,156.378845 536.019348,156.785187 536.044617,157.496292 
	C532.959778,160.048309 530.630981,159.278320 528.268005,156.381546 
	C525.171265,152.585297 521.666199,149.122192 518.078430,144.835114 
	C514.399841,143.520538 510.979553,142.886658 507.559265,142.252777 
	C507.597717,141.821716 507.636169,141.390671 507.674622,140.959610 
	C512.590759,140.959610 517.528687,141.224792 522.411987,140.824219 
	C524.268372,140.671936 527.178467,139.295837 527.531677,137.937546 
	C528.182983,135.432983 527.299561,132.529297 527.055603,129.791931 
	C526.363220,129.886826 525.670776,129.981720 524.513062,130.023926 
	C517.304199,129.969040 510.560669,129.966843 503.444824,130.108627 
	C502.753235,130.607086 502.159149,130.958450 502.155090,131.316467 
	C502.068726,138.962875 502.015442,146.610336 502.082336,154.256500 
	C502.087341,154.827271 503.045258,155.389694 503.560181,155.955994 
	C503.575317,156.531281 503.590485,157.106552 502.916595,157.871109 
	C501.365875,158.304977 500.504211,158.549561 499.642517,158.794159 
	C499.642517,158.794159 499.337341,158.690369 499.472748,158.104767 
	C499.728912,151.369644 499.928711,145.220428 499.954071,139.070511 
	C500.008118,125.973900 499.971741,126.052643 512.833313,125.927513 
	C516.895264,125.888000 520.951843,125.302673 525.010925,124.967140 
	C529.344299,125.627693 531.738037,128.136276 532.125183,132.504288 
	C532.723267,139.250122 531.626160,141.249771 525.153687,144.640320 
	C528.596313,148.473221 531.950623,152.207870 535.647766,155.957520 
z"/>
<path fill="#0A0A0A" opacity="1.000000" stroke="none" 
	d="
M554.422363,465.137512 
	C552.791809,470.882721 549.396057,473.375061 544.681335,472.677673 
	C540.068359,471.995331 537.607422,468.918457 537.545288,463.415680 
	C537.462646,456.098999 537.524902,448.780670 537.524902,441.030457 
	C539.294617,441.030457 540.968994,441.030457 542.979553,441.030457 
	C542.979553,448.452087 542.826172,455.747589 543.101074,463.026947 
	C543.160339,464.598297 544.762390,466.111450 545.653809,467.651428 
	C546.684082,466.079498 548.532593,464.543854 548.604065,462.929474 
	C548.926208,455.656433 548.744568,448.361084 548.744568,440.840149 
	C550.723816,440.840149 552.317078,440.840149 554.460815,440.840149 
	C554.460815,448.864716 554.460815,456.791748 554.422363,465.137512 
z"/>
<path fill="#101010" opacity="1.000000" stroke="none" 
	d="
M312.620483,466.031250 
	C312.487213,459.972473 312.247406,454.322906 312.428528,448.686920 
	C312.599701,443.359619 315.968658,440.148376 320.823059,440.122833 
	C325.768311,440.096802 329.218964,443.657867 329.326691,449.098022 
	C329.422058,453.913727 329.268188,458.734406 329.366058,463.550018 
	C329.464844,468.411987 327.262604,471.494080 322.552704,472.572723 
	C318.082825,473.596405 314.692871,471.394135 312.620483,466.031250 
M322.016754,445.547363 
	C320.622314,446.431061 318.090485,447.235016 318.021973,448.211700 
	C317.638947,453.673218 317.708252,459.183716 317.987640,464.658905 
	C318.040009,465.685669 319.605133,467.073792 320.743835,467.432129 
	C321.366638,467.628174 323.368896,466.013336 323.365234,465.221436 
	C323.335693,458.806335 322.977936,452.392731 322.016754,445.547363 
z"/>
<path fill="#131313" opacity="1.000000" stroke="none" 
	d="
M139.236511,470.003448 
	C135.916946,473.107391 132.445694,473.568604 128.800430,471.833160 
	C125.185036,470.112000 124.206650,466.879456 124.273727,463.102631 
	C124.359413,458.278320 124.173691,453.447388 124.330444,448.626648 
	C124.498070,443.471252 127.982109,440.117401 132.836426,440.116486 
	C137.678665,440.115570 141.087585,443.542450 141.165436,448.665375 
	C141.243805,453.822784 141.325439,458.988525 141.104782,464.137756 
	C141.024139,466.020020 140.079147,467.865234 139.236511,470.003448 
M131.651123,467.383087 
	C132.936630,466.508148 135.276520,465.697449 135.334381,464.747711 
	C135.677689,459.112335 135.604248,453.440033 135.368729,447.792755 
	C135.331757,446.906006 133.792236,445.460785 132.877106,445.403778 
	C131.933640,445.345062 130.035156,446.682434 130.047699,447.382233 
	C130.164627,453.912994 130.603104,460.438019 131.651123,467.383087 
z"/>
<path fill="#131313" opacity="1.000000" stroke="none" 
	d="
M645.084106,446.641052 
	C645.128784,452.894196 645.196838,458.712921 645.118713,464.529694 
	C645.055847,469.211304 642.055176,472.393616 637.577087,472.767090 
	C632.923096,473.155212 628.743713,470.148193 628.470825,465.524200 
	C628.119019,459.561493 628.171509,453.554260 628.433716,447.583069 
	C628.617920,443.388062 631.383667,440.868774 635.411682,440.301697 
	C640.050415,439.648651 643.491028,441.533722 645.084106,446.641052 
M633.775879,451.736145 
	C633.779785,455.892487 633.573486,460.066376 633.918030,464.194275 
	C634.018860,465.402130 635.686707,466.479218 636.636292,467.616211 
	C637.625000,466.500977 639.399902,465.431244 639.467529,464.262726 
	C639.774414,458.960693 639.742920,453.623657 639.478455,448.316895 
	C639.425293,447.250214 637.828735,446.260437 636.943787,445.235199 
	C635.894653,446.262421 634.693848,447.182922 633.862732,448.363586 
	C633.469238,448.922638 633.782532,449.979248 633.775879,451.736145 
z"/>
<path fill="#0A0A0A" opacity="1.000000" stroke="none" 
	d="
M588.283447,462.731323 
	C587.852600,471.358398 584.075989,473.412994 571.997131,471.882568 
	C571.997131,461.697662 571.997131,451.476532 571.997131,440.685883 
	C575.098938,440.685883 578.215271,440.401886 581.258057,440.753998 
	C585.568604,441.252899 588.192078,443.771851 588.265198,448.331635 
	C588.339661,452.975983 588.282959,457.622467 588.283447,462.731323 
M583.077332,447.888153 
	C581.350952,447.001312 579.624512,446.114441 577.389404,444.966278 
	C577.389404,453.279266 577.389404,460.176575 577.389404,467.198730 
	C581.285645,467.942017 583.337463,466.983337 583.182373,462.771973 
	C583.011536,458.129578 583.141724,453.476135 583.077332,447.888153 
z"/>
<path fill="#131313" opacity="1.000000" stroke="none" 
	d="
M266.690369,446.833862 
	C265.162933,446.157257 263.784851,445.818634 262.406799,445.480042 
	C262.189453,446.866455 261.444702,448.455658 261.881134,449.590729 
	C262.500122,451.200562 263.883179,452.578918 265.134888,453.866425 
	C266.520142,455.291290 268.312408,456.342010 269.596405,457.839478 
	C272.346893,461.047119 273.945587,464.660767 271.611145,468.806976 
	C269.498383,472.559387 265.972321,473.250916 262.102417,472.569214 
	C257.993683,471.845428 256.141937,469.361389 255.339005,463.792755 
	C257.705078,463.237946 259.957825,461.997864 261.248596,465.746460 
	C261.578064,466.703247 264.014984,466.934357 265.483612,467.498871 
	C265.739746,465.749939 266.844269,463.346466 266.093964,462.373993 
	C263.784058,459.379944 260.596893,457.082397 258.065369,454.234406 
	C255.101791,450.900391 254.547546,446.914825 257.216095,443.233643 
	C259.807373,439.659058 263.827484,439.129700 267.532898,440.965881 
	C269.709656,442.044525 271.185852,444.536957 272.977173,446.393494 
	C272.621155,446.985168 272.265167,447.576843 271.909149,448.168518 
	C270.219360,447.836304 268.529541,447.504059 266.690369,446.833862 
z"/>
<path fill="#262223" opacity="1.000000" stroke="none" 
	d="
M164.659866,124.793678 
	C167.557968,127.754776 166.749100,129.472549 163.163910,129.721664 
	C159.714172,129.961380 156.234711,129.773514 152.210800,129.773514 
	C152.210800,137.417374 152.210831,144.685013 152.210770,151.952652 
	C152.210754,153.282745 152.567276,154.753189 152.114365,155.905350 
	C151.614365,157.177231 150.371948,158.157272 149.452911,159.264435 
	C148.576996,158.100311 146.985809,156.961624 146.943329,155.767822 
	C146.701111,148.959732 146.827988,142.138519 146.829285,135.321762 
	C146.829605,133.691574 146.829346,132.061386 146.829346,129.780441 
	C143.354431,129.780441 140.219559,130.072220 137.180298,129.659576 
	C135.618683,129.447556 134.227661,127.978989 132.759552,127.078262 
	C134.293274,126.243904 135.811371,124.723694 137.363327,124.688309 
	C146.335175,124.483788 155.315018,124.629677 164.659866,124.793678 
z"/>
<path fill="#141414" opacity="1.000000" stroke="none" 
	d="
M474.015564,471.169617 
	C472.432617,468.782318 471.155914,466.617828 469.703094,464.154846 
	C473.089478,463.042084 475.255646,462.216583 476.501526,465.818512 
	C476.835785,466.784851 479.026733,467.108948 480.365356,467.727875 
	C480.876312,466.142883 481.817505,464.538605 481.747559,462.979675 
	C481.700653,461.934021 480.301422,460.868927 479.363861,459.960541 
	C477.572266,458.224731 475.594971,456.676727 473.845490,454.902161 
	C470.881958,451.896088 469.482147,447.981293 471.907654,444.522064 
	C473.437775,442.339783 476.835419,440.623871 479.571930,440.327148 
	C483.729858,439.876221 486.714264,442.399292 487.637115,447.153595 
	C485.405975,447.890869 483.369659,449.855865 481.540070,446.307220 
	C481.137909,445.527222 479.035828,444.836700 478.298462,445.221130 
	C477.429565,445.674103 476.578461,447.496857 476.819122,448.447357 
	C477.240295,450.111053 478.300018,451.739136 479.462158,453.055603 
	C480.767670,454.534546 482.584869,455.548523 484.000824,456.945801 
	C488.173798,461.063782 489.051422,465.776703 486.466614,469.473297 
	C484.051331,472.927429 479.823364,473.595520 474.015564,471.169617 
z"/>
<path fill="#141414" opacity="1.000000" stroke="none" 
	d="
M232.706665,466.484741 
	C232.123199,464.122314 231.729004,461.802917 230.460037,460.158600 
	C228.760330,457.956177 226.231186,456.415497 224.333450,454.339111 
	C221.623032,451.373535 220.484619,447.411102 222.990631,444.332794 
	C224.763992,442.154480 228.359283,440.613068 231.258148,440.403412 
	C235.218735,440.117004 237.878647,442.821747 238.787979,448.652954 
	C236.238937,447.724274 234.508072,447.080780 232.767746,446.463928 
	C231.508286,446.017548 230.236298,445.606537 228.969910,445.179749 
	C228.574799,446.522583 227.543137,448.096527 227.927872,449.156219 
	C228.568222,450.920013 229.990097,452.472382 231.318115,453.894043 
	C232.668518,455.339661 234.465637,456.374573 235.780197,457.845734 
	C238.628036,461.032776 240.092194,464.682739 237.812042,468.792603 
	C235.737473,472.531952 232.187790,473.310852 228.328598,472.559296 
	C223.768860,471.671356 221.899948,468.424896 221.340210,463.960693 
	C224.049164,462.988983 226.116318,462.238770 227.386246,465.805695 
	C228.254166,468.243530 230.313339,468.895996 232.706665,466.484741 
z"/>
<path fill="#0D0D0D" opacity="1.000000" stroke="none" 
	d="
M56.881447,465.832001 
	C56.881546,457.257935 56.881546,449.160889 56.881546,441.122131 
	C68.145187,439.384491 72.667511,441.247009 73.565292,447.797363 
	C74.720383,456.225067 72.043701,459.503784 62.524391,460.897217 
	C62.524391,464.395538 62.524391,467.967529 62.524391,471.984344 
	C60.626419,472.130432 59.082829,472.249237 56.881344,472.418671 
	C56.881344,470.139130 56.881344,468.224091 56.881447,465.832001 
M62.210884,451.413330 
	C62.666737,452.846680 63.122585,454.279999 63.578434,455.713348 
	C64.930824,455.242310 67.256111,455.020630 67.452774,454.253357 
	C68.037750,451.971069 68.303413,449.314514 67.630150,447.132416 
	C67.319839,446.126770 64.532471,445.885437 62.211323,445.065460 
	C62.211323,447.664368 62.211323,449.116791 62.210884,451.413330 
z"/>
<path fill="#0A0A0A" opacity="1.000000" stroke="none" 
	d="
M189.894440,462.979034 
	C189.894363,455.350647 189.894363,448.220795 189.894363,440.850342 
	C194.974960,440.850342 199.747314,440.850342 204.817963,440.850342 
	C204.817963,442.255219 204.817963,443.648041 204.817963,445.248810 
	C201.795441,445.381531 198.861679,445.510376 195.658188,445.651031 
	C195.658188,448.457458 195.658188,451.001556 195.658188,453.842529 
	C197.753510,453.952240 199.702698,454.054321 202.084366,454.179016 
	C202.168884,455.512878 202.257156,456.906036 202.371323,458.707794 
	C199.974167,458.814423 197.916214,458.905914 195.619324,459.008087 
	C195.619324,461.748932 195.619324,464.173157 195.619324,467.043335 
	C198.527176,467.043335 201.445190,467.043335 204.710587,467.043335 
	C204.900269,468.830017 205.047546,470.217224 205.233887,471.972351 
	C200.064972,471.972351 195.203979,471.972351 189.894516,471.972351 
	C189.894516,469.043671 189.894516,466.260620 189.894440,462.979034 
z"/>
<path fill="#090909" opacity="1.000000" stroke="none" 
	d="
M163.967789,461.223877 
	C163.962936,465.016937 163.962936,468.341217 163.962936,472.092438 
	C162.259201,472.168274 160.684540,472.238373 158.843567,472.320312 
	C158.843567,461.717896 158.843567,451.468628 158.843567,440.910675 
	C163.630585,440.910675 168.362411,440.910675 173.341049,440.910675 
	C173.341049,442.359161 173.341049,443.729004 173.341049,445.382263 
	C170.242294,445.382263 167.447479,445.382263 164.307312,445.382263 
	C164.307312,448.211334 164.307312,450.769135 164.307312,453.760040 
	C166.276901,453.918243 168.349747,454.084717 170.756805,454.278015 
	C170.756805,455.675018 170.756805,457.035370 170.756805,457.755127 
	C168.265015,458.857025 166.118835,459.806061 163.967789,461.223877 
z"/>
<path fill="#1A1A1A" opacity="1.000000" stroke="none" 
	d="
M423.720459,461.981659 
	C423.720276,463.937927 423.720276,465.395538 423.720276,467.171570 
	C426.832642,467.330872 429.575378,467.471252 432.529694,467.622437 
	C432.529694,469.223511 432.529694,470.606750 432.529694,472.145203 
	C427.665955,472.145203 423.073639,472.145203 418.275696,472.145203 
	C418.275696,461.687317 418.275696,451.453247 418.275696,440.788574 
	C419.830963,440.698486 421.410522,440.607025 423.720673,440.473206 
	C423.720673,447.705170 423.720673,454.594086 423.720459,461.981659 
z"/>
<path fill="#090909" opacity="1.000000" stroke="none" 
	d="
M515.192139,460.994019 
	C515.192139,464.814789 515.192139,468.137421 515.192139,471.992126 
	C513.548035,472.118835 511.997925,472.238342 509.925110,472.398102 
	C509.925110,463.398834 509.925110,454.671631 509.925110,445.807343 
	C507.833282,445.561188 506.217743,445.371094 504.400177,445.157227 
	C504.400177,443.775299 504.400177,442.508545 504.400177,440.918884 
	C509.718109,440.918884 514.953064,440.918884 520.492859,440.918884 
	C520.588379,442.177887 520.683411,443.429901 520.800842,444.977173 
	C519.012756,445.251007 517.441956,445.491547 515.192139,445.836090 
	C515.192139,450.673340 515.192139,455.584625 515.192139,460.994019 
z"/>
<path fill="#221E1F" opacity="1.000000" stroke="none" 
	d="
M175.045959,148.950180 
	C175.042770,151.761154 175.321136,154.132355 174.913971,156.379318 
	C174.718750,157.456619 173.226379,158.298859 172.321487,159.247574 
	C171.436508,158.271011 169.802856,157.309631 169.782700,156.315521 
	C169.587723,146.707764 169.585403,137.092896 169.782913,127.485298 
	C169.802841,126.516083 171.498581,125.581322 172.416595,124.630569 
	C173.293976,125.778320 174.888428,126.900528 174.930389,128.078049 
	C175.172180,134.864563 175.046814,141.664185 175.045959,148.950180 
z"/>
<path fill="#030303" opacity="1.000000" stroke="none" 
	d="
M289.717072,447.009308 
	C289.717010,444.721558 289.717010,442.933289 289.717010,440.888245 
	C291.528015,440.888245 292.955078,440.888245 294.743591,440.888245 
	C294.743591,451.084778 294.743591,461.432220 294.743591,472.037506 
	C293.188873,472.037506 291.652588,472.037506 289.717133,472.037506 
	C289.717133,463.702057 289.717133,455.605408 289.717072,447.009308 
z"/>
<path fill="#030303" opacity="1.000000" stroke="none" 
	d="
M611.132690,464.964600 
	C611.132507,467.582001 611.132507,469.703186 611.132507,472.050140 
	C609.297363,472.050140 607.875061,472.050140 606.112854,472.050140 
	C606.112854,461.789764 606.112854,451.445282 606.112854,440.863403 
	C607.627747,440.863403 609.059570,440.863403 611.132874,440.863403 
	C611.132874,448.662994 611.132874,456.565674 611.132690,464.964600 
z"/>
<path fill="#353132" opacity="1.000000" stroke="none" 
	d="
M524.635742,124.806625 
	C520.951843,125.302673 516.895264,125.888000 512.833313,125.927513 
	C499.971741,126.052643 500.008118,125.973900 499.954071,139.070511 
	C499.928711,145.220428 499.728912,151.369644 499.378876,157.973755 
	C498.845947,154.016159 498.401917,149.608002 498.274689,145.190735 
	C498.121277,139.862930 498.368805,134.522888 498.187988,129.196793 
	C498.072754,125.802261 499.227173,124.355392 502.775421,124.463036 
	C509.932373,124.680176 517.098267,124.602310 524.635742,124.806625 
z"/>
<path fill="#353132" opacity="1.000000" stroke="none" 
	d="
M524.978394,130.076630 
	C525.670776,129.981720 526.363220,129.886826 527.055603,129.791931 
	C527.299561,132.529297 528.182983,135.432983 527.531677,137.937546 
	C527.178467,139.295837 524.268372,140.671936 522.411987,140.824219 
	C517.528687,141.224792 512.590759,140.959610 507.674622,140.959610 
	C507.636169,141.390671 507.597717,141.821716 507.559265,142.252777 
	C510.979553,142.886658 514.399841,143.520538 517.923340,144.537415 
	C515.114807,144.799835 512.156616,144.947769 509.309235,144.455078 
	C507.677826,144.172791 506.226501,142.849701 504.290527,141.857269 
	C503.886932,141.719345 503.932312,141.555008 504.343628,141.462280 
	C506.280182,140.634415 507.762146,139.401779 509.339417,139.264465 
	C512.975525,138.947861 516.672119,139.355377 520.315979,139.086517 
	C522.320129,138.938629 525.730469,138.341965 525.945740,137.376495 
	C526.447388,135.126999 525.398865,132.531784 524.978394,130.076630 
z"/>
<path fill="#101010" opacity="1.000000" stroke="none" 
	d="
M503.932312,141.555008 
	C503.932312,141.555008 503.886932,141.719345 503.875854,141.673447 
	C503.819946,146.093933 503.775146,150.560333 503.645264,155.491364 
	C503.045258,155.389694 502.087341,154.827271 502.082336,154.256500 
	C502.015442,146.610336 502.068726,138.962875 502.155090,131.316467 
	C502.159149,130.958450 502.753235,130.607086 503.411072,130.579559 
	C503.810516,134.455994 503.871399,138.005493 503.932312,141.555008 
z"/>
<path fill="#353132" opacity="1.000000" stroke="none" 
	d="
M499.849030,158.937378 
	C500.504211,158.549561 501.365875,158.304977 502.682220,158.057739 
	C502.109772,158.396942 501.082642,158.738785 499.849030,158.937378 
z"/>
<path fill="#FBFBFB" opacity="1.000000" stroke="none" 
	d="
M195.058807,154.106903 
	C192.915009,154.103912 191.252731,154.133514 189.592316,154.090775 
	C186.799759,154.018860 185.330582,152.699097 185.367126,149.759628 
	C185.431168,144.609909 185.437286,139.458008 185.362015,134.308563 
	C185.320160,131.445282 186.566620,129.867035 189.438919,129.833008 
	C194.422318,129.773926 199.407486,129.773178 204.390839,129.835281 
	C207.333633,129.871948 208.382507,131.579620 208.323624,134.399887 
	C208.223083,139.216034 208.134857,144.042999 208.348236,148.851807 
	C208.523788,152.808167 206.756561,154.285934 203.016907,154.127411 
	C200.529175,154.021942 198.033371,154.107117 195.058807,154.106903 
z"/>
<path fill="#FCFCFC" opacity="1.000000" stroke="none" 
	d="
M124.079643,150.570740 
	C122.583511,152.058258 121.164909,153.836655 119.605797,153.969803 
	C114.976631,154.365158 110.292145,154.113007 105.629280,154.113220 
	C102.586662,154.113358 101.021301,152.732620 101.070389,149.548294 
	C101.147385,144.553543 101.153404,139.555695 101.068748,134.561188 
	C101.016815,131.497253 102.268044,129.808105 105.424751,129.798065 
	C110.254074,129.782715 115.083588,129.777832 119.912834,129.803085 
	C122.745453,129.817886 124.163261,131.156937 124.115646,134.123062 
	C124.030121,139.450668 124.092422,144.780670 124.079643,150.570740 
z"/>
<path fill="#F3F3F3" opacity="1.000000" stroke="none" 
	d="
M548.317993,142.573196 
	C549.556824,139.519608 550.861938,136.865417 552.527283,133.478531 
	C554.203186,136.950485 555.581360,139.805801 557.302063,143.370651 
	C553.860901,143.217056 551.122559,143.094818 548.317993,142.573196 
z"/>
<path fill="#E9E9E9" opacity="1.000000" stroke="none" 
	d="
M99.534203,445.812195 
	C100.504211,448.433868 101.539543,451.003174 101.332130,453.467865 
	C101.243690,454.518677 98.558762,455.350952 96.829414,456.421387 
	C94.734985,448.768402 95.374634,446.284882 99.534203,445.812195 
z"/>
<path fill="#FCFCFC" opacity="1.000000" stroke="none" 
	d="
M504.343628,141.462280 
	C503.871399,138.005493 503.810516,134.455994 503.783356,130.435547 
	C510.560669,129.966843 517.304199,129.969040 524.513062,130.023926 
	C525.398865,132.531784 526.447388,135.126999 525.945740,137.376495 
	C525.730469,138.341965 522.320129,138.938629 520.315979,139.086517 
	C516.672119,139.355377 512.975525,138.947861 509.339417,139.264465 
	C507.762146,139.401779 506.280182,140.634415 504.343628,141.462280 
z"/>
<path fill="#E9E9E9" opacity="1.000000" stroke="none" 
	d="
M322.368500,445.763000 
	C322.977936,452.392731 323.335693,458.806335 323.365234,465.221436 
	C323.368896,466.013336 321.366638,467.628174 320.743835,467.432129 
	C319.605133,467.073792 318.040009,465.685669 317.987640,464.658905 
	C317.708252,459.183716 317.638947,453.673218 318.021973,448.211700 
	C318.090485,447.235016 320.622314,446.431061 322.368500,445.763000 
z"/>
<path fill="#E9E9E9" opacity="1.000000" stroke="none" 
	d="
M131.299805,467.173889 
	C130.603104,460.438019 130.164627,453.912994 130.047699,447.382233 
	C130.035156,446.682434 131.933640,445.345062 132.877106,445.403778 
	C133.792236,445.460785 135.331757,446.906006 135.368729,447.792755 
	C135.604248,453.440033 135.677689,459.112335 135.334381,464.747711 
	C135.276520,465.697449 132.936630,466.508148 131.299805,467.173889 
z"/>
<path fill="#E9E9E9" opacity="1.000000" stroke="none" 
	d="
M633.775757,451.273285 
	C633.782532,449.979248 633.469238,448.922638 633.862732,448.363586 
	C634.693848,447.182922 635.894653,446.262421 636.943787,445.235199 
	C637.828735,446.260437 639.425293,447.250214 639.478455,448.316895 
	C639.742920,453.623657 639.774414,458.960693 639.467529,464.262726 
	C639.399902,465.431244 637.625000,466.500977 636.636292,467.616211 
	C635.686707,466.479218 634.018860,465.402130 633.918030,464.194275 
	C633.573486,460.066376 633.779785,455.892487 633.775757,451.273285 
z"/>
<path fill="#F3F3F3" opacity="1.000000" stroke="none" 
	d="
M583.109070,448.357819 
	C583.141724,453.476135 583.011536,458.129578 583.182373,462.771973 
	C583.337463,466.983337 581.285645,467.942017 577.389404,467.198730 
	C577.389404,460.176575 577.389404,453.279266 577.389404,444.966278 
	C579.624512,446.114441 581.350952,447.001312 583.109070,448.357819 
z"/>
<path fill="#E9E9E9" opacity="1.000000" stroke="none" 
	d="
M62.211105,450.991272 
	C62.211323,449.116791 62.211323,447.664368 62.211323,445.065460 
	C64.532471,445.885437 67.319839,446.126770 67.630150,447.132416 
	C68.303413,449.314514 68.037750,451.971069 67.452774,454.253357 
	C67.256111,455.020630 64.930824,455.242310 63.578434,455.713348 
	C63.122585,454.279999 62.666737,452.846680 62.211105,450.991272 
z"/>
</svg>